<?xml version="1.0" encoding="UTF-8"?>
<svg xmlns="http://www.w3.org/2000/svg"
     xmlns:xlink="http://www.w3.org/1999/xlink"
     version="1.2"
     width="180mm" height="90mm" viewBox="0 0 180 90"
     stroke="none"
     fill="#000000"
     stroke-width="0.3"
     font-size="3.88"
>
<defs>
  <marker id="arrow" markerWidth="15" markerHeight="7" refX="5" refY="3.5" orient="auto" markerUnits="strokeWidth">
    <path d="M0,0 L15,3.5 L0,7 z" stroke="context-stroke" fill="context-stroke"/>
  </marker>
</defs>
<g stroke-width="0.63" fill="#000000" fill-opacity="0.000" id="img-b898c0e4-1">
  <g transform="translate(27.5,10.43)" stroke="#000000">
    <path fill="none" d="M-7.44,-1.09 C-1.42,1.09 1.42,1.09 7.44,-1.09" class="primitive"/>
  </g>
  <g transform="translate(102.5,4.57)" stroke="#0000FF">
    <path fill="none" d="M7.44,1.09 C1.42,-1.09 -1.42,-1.09 -7.44,1.09" class="primitive"/>
  </g>
  <g transform="translate(27.5,35.43)" stroke="#000000">
    <path fill="none" d="M-7.44,-1.09 C-1.42,1.09 1.42,1.09 7.44,-1.09" class="primitive"/>
  </g>
  <g transform="translate(102.5,29.57)" stroke="#000000">
    <path fill="none" d="M7.44,1.09 C1.42,-1.09 -1.42,-1.09 -7.44,1.09" class="primitive"/>
  </g>
  <g transform="translate(27.5,60.43)" stroke="#0000FF">
    <path fill="none" d="M-7.44,-1.09 C-1.42,1.09 1.42,1.09 7.44,-1.09" class="primitive"/>
  </g>
  <g transform="translate(127.5,54.57)" stroke="#0000FF">
    <path fill="none" d="M7.44,1.09 C1.42,-1.09 -1.42,-1.09 -7.44,1.09" class="primitive"/>
  </g>
  <g transform="translate(27.5,85.43)" stroke="#0000FF">
    <path fill="none" d="M-7.44,-1.09 C-1.42,1.09 1.42,1.09 7.44,-1.09" class="primitive"/>
  </g>
  <g transform="translate(152.5,79.57)" stroke="#0000FF">
    <path fill="none" d="M7.44,1.09 C1.42,-1.09 -1.42,-1.09 -7.44,1.09" class="primitive"/>
  </g>
  <g transform="translate(52.5,10.43)" stroke="#0000FF">
    <path fill="none" d="M-7.44,-1.09 C-1.42,1.09 1.42,1.09 7.44,-1.09" class="primitive"/>
  </g>
  <g transform="translate(28.3,42.98)" stroke="#0000FF">
    <path fill="none" d="M32.24,-33.29 C-18.35,-8.4 -22.8,4.97 8.91,36.72" class="primitive"/>
  </g>
  <g transform="translate(77.5,10.43)" stroke="#0000FF">
    <path fill="none" d="M-7.44,-1.09 C-1.42,1.09 1.42,1.09 7.44,-1.09" class="primitive"/>
  </g>
  <g transform="translate(30.47,45)" stroke="#0000FF">
    <path fill="none" d="M5.86,-9.97 C-5.86,-1.9 -5.86,1.9 5.86,9.97" class="primitive"/>
  </g>
  <g transform="translate(52.5,35.43)" stroke="#0000FF">
    <path fill="none" d="M-7.44,-1.09 C-1.42,1.09 1.42,1.09 7.44,-1.09" class="primitive"/>
  </g>
  <g transform="translate(61.8,47.33)" stroke="#0000FF">
    <path fill="none" d="M-16.26,8.73 C4.06,3.46 7.97,-0.45 4.22,-11.74" class="primitive"/>
  </g>
  <g transform="translate(52.5,60.43)" stroke="#0000FF">
    <path fill="none" d="M-7.44,-1.09 C-1.42,1.09 1.42,1.09 7.44,-1.09" class="primitive"/>
  </g>
  <g transform="translate(89.12,49.02)" stroke="#0000FF">
    <path fill="none" d="M-44.03,31.66 C16.16,10.14 25.1,-3.27 2.77,-38.54" class="primitive"/>
  </g>
  <g transform="translate(52.5,85.43)" stroke="#0000FF">
    <path fill="none" d="M-7.44,-1.09 C-1.42,1.09 1.42,1.09 7.44,-1.09" class="primitive"/>
  </g>
  <g transform="translate(77.5,35.43)" stroke="#0000FF">
    <path fill="none" d="M-7.44,-1.09 C-1.42,1.09 1.42,1.09 7.44,-1.09" class="primitive"/>
  </g>
  <g transform="translate(77.5,60.43)" stroke="#0000FF">
    <path fill="none" d="M-7.44,-1.09 C-1.42,1.09 1.42,1.09 7.44,-1.09" class="primitive"/>
  </g>
  <g transform="translate(77.5,85.43)" stroke="#0000FF">
    <path fill="none" d="M-7.44,-1.09 C-1.42,1.09 1.42,1.09 7.44,-1.09" class="primitive"/>
  </g>
  <g transform="translate(102.5,60.43)" stroke="#0000FF">
    <path fill="none" d="M-7.44,-1.09 C-1.42,1.09 1.42,1.09 7.44,-1.09" class="primitive"/>
  </g>
  <g transform="translate(102.5,85.43)" stroke="#0000FF">
    <path fill="none" d="M-7.44,-1.09 C-1.42,1.09 1.42,1.09 7.44,-1.09" class="primitive"/>
  </g>
  <g transform="translate(93.2,47.33)" stroke="#0000FF">
    <path fill="none" d="M-4.22,-11.74 C-7.97,-0.45 -4.06,3.46 16.26,8.73" class="primitive"/>
  </g>
  <g transform="translate(127.5,85.43)" stroke="#0000FF">
    <path fill="none" d="M-7.44,-1.09 C-1.42,1.09 1.42,1.09 7.44,-1.09" class="primitive"/>
  </g>
</g>
<g stroke-width="0.63" id="img-b898c0e4-2">
</g>
<g font-size="4" stroke="#000000" stroke-opacity="0.000" fill="#000000" id="img-b898c0e4-3">
</g>
<g stroke-width="0" stroke="#000000" stroke-opacity="0.000" id="img-b898c0e4-4">
  <g transform="translate(15,7.5)" fill="#ADD8E6">
    <circle cx="0" cy="0" r="6" class="primitive"/>
  </g>
  <g transform="translate(115,7.5)" fill="#808080">
    <circle cx="0" cy="0" r="6" class="primitive"/>
  </g>
  <g transform="translate(15,32.5)" fill="#ADD8E6">
    <circle cx="0" cy="0" r="6" class="primitive"/>
  </g>
  <g transform="translate(115,32.5)" fill="#808080">
    <circle cx="0" cy="0" r="6" class="primitive"/>
  </g>
  <g transform="translate(15,57.5)" fill="#ADD8E6">
    <circle cx="0" cy="0" r="6" class="primitive"/>
  </g>
  <g transform="translate(140,57.5)" fill="#808080">
    <circle cx="0" cy="0" r="6" class="primitive"/>
  </g>
  <g transform="translate(15,82.5)" fill="#ADD8E6">
    <circle cx="0" cy="0" r="6" class="primitive"/>
  </g>
  <g transform="translate(165,82.5)" fill="#808080">
    <circle cx="0" cy="0" r="6" class="primitive"/>
  </g>
  <g transform="translate(40,7.5)" fill="#008000">
    <circle cx="0" cy="0" r="6" class="primitive"/>
  </g>
  <g transform="translate(65,7.5)" fill="#008000">
    <circle cx="0" cy="0" r="6" class="primitive"/>
  </g>
  <g transform="translate(40,32.5)" fill="#008000">
    <circle cx="0" cy="0" r="6" class="primitive"/>
  </g>
  <g transform="translate(40,57.5)" fill="#008000">
    <circle cx="0" cy="0" r="6" class="primitive"/>
  </g>
  <g transform="translate(40,82.5)" fill="#008000">
    <circle cx="0" cy="0" r="6" class="primitive"/>
  </g>
  <g transform="translate(65,32.5)" fill="#008000">
    <circle cx="0" cy="0" r="6" class="primitive"/>
  </g>
  <g transform="translate(90,7.5)" fill="#008000">
    <circle cx="0" cy="0" r="6" class="primitive"/>
  </g>
  <g transform="translate(65,57.5)" fill="#008000">
    <circle cx="0" cy="0" r="6" class="primitive"/>
  </g>
  <g transform="translate(65,82.5)" fill="#008000">
    <circle cx="0" cy="0" r="6" class="primitive"/>
  </g>
  <g transform="translate(90,57.5)" fill="#008000">
    <circle cx="0" cy="0" r="6" class="primitive"/>
  </g>
  <g transform="translate(90,82.5)" fill="#008000">
    <circle cx="0" cy="0" r="6" class="primitive"/>
  </g>
  <g transform="translate(90,32.5)" fill="#008000">
    <circle cx="0" cy="0" r="6" class="primitive"/>
  </g>
  <g transform="translate(115,57.5)" fill="#008000">
    <circle cx="0" cy="0" r="6" class="primitive"/>
  </g>
  <g transform="translate(115,82.5)" fill="#008000">
    <circle cx="0" cy="0" r="6" class="primitive"/>
  </g>
  <g transform="translate(140,82.5)" fill="#008000">
    <circle cx="0" cy="0" r="6" class="primitive"/>
  </g>
</g>
<g font-size="4" stroke="#000000" stroke-opacity="0.000" fill="#000000" id="img-b898c0e4-5">
  <g transform="translate(15,7.5)">
    <g class="primitive">
      <text text-anchor="middle" dy="0.35em">[1]</text>
    </g>
  </g>
  <g transform="translate(115,7.5)">
    <g class="primitive">
      <text text-anchor="middle" dy="0.35em">[2]</text>
    </g>
  </g>
  <g transform="translate(15,32.5)">
    <g class="primitive">
      <text text-anchor="middle" dy="0.35em">[3]</text>
    </g>
  </g>
  <g transform="translate(115,32.5)">
    <g class="primitive">
      <text text-anchor="middle" dy="0.35em">[4]</text>
    </g>
  </g>
  <g transform="translate(15,57.5)">
    <g class="primitive">
      <text text-anchor="middle" dy="0.35em">[5]</text>
    </g>
  </g>
  <g transform="translate(140,57.5)">
    <g class="primitive">
      <text text-anchor="middle" dy="0.35em">[6]</text>
    </g>
  </g>
  <g transform="translate(15,82.5)">
    <g class="primitive">
      <text text-anchor="middle" dy="0.35em">[7]</text>
    </g>
  </g>
  <g transform="translate(165,82.5)">
    <g class="primitive">
      <text text-anchor="middle" dy="0.35em">[8]</text>
    </g>
  </g>
  <g transform="translate(40,7.5)">
    <g class="primitive">
      <text text-anchor="middle" dy="-0.25em">[9]<tspan x="0" dy="1.2em">3π/2</tspan></text>
    </g>
  </g>
  <g transform="translate(65,7.5)">
    <g class="primitive">
      <text text-anchor="middle" dy="-0.25em">[11]<tspan x="0" dy="1.2em">1π/2</tspan></text>
    </g>
  </g>
  <g transform="translate(40,32.5)">
    <g class="primitive">
      <text text-anchor="middle" dy="-0.25em">[12]<tspan x="0" dy="1.2em">1π/2</tspan></text>
    </g>
  </g>
  <g transform="translate(40,57.5)">
    <g class="primitive">
      <text text-anchor="middle" dy="-0.25em">[15]<tspan x="0" dy="1.2em">0π/1</tspan></text>
    </g>
  </g>
  <g transform="translate(40,82.5)">
    <g class="primitive">
      <text text-anchor="middle" dy="-0.25em">[17]<tspan x="0" dy="1.2em">0π/1</tspan></text>
    </g>
  </g>
  <g transform="translate(65,32.5)">
    <g class="primitive">
      <text text-anchor="middle" dy="-0.25em">[20]<tspan x="0" dy="1.2em">1π/4</tspan></text>
    </g>
  </g>
  <g transform="translate(90,7.5)">
    <g class="primitive">
      <text text-anchor="middle" dy="-0.25em">[23]<tspan x="0" dy="1.2em">1π/4</tspan></text>
    </g>
  </g>
  <g transform="translate(65,57.5)">
    <g class="primitive">
      <text text-anchor="middle" dy="-0.25em">[26]<tspan x="0" dy="1.2em">1π/2</tspan></text>
    </g>
  </g>
  <g transform="translate(65,82.5)">
    <g class="primitive">
      <text text-anchor="middle" dy="-0.25em">[31]<tspan x="0" dy="1.2em">3π/2</tspan></text>
    </g>
  </g>
  <g transform="translate(90,57.5)">
    <g class="primitive">
      <text text-anchor="middle" dy="-0.25em">[32]<tspan x="0" dy="1.2em">1π/2</tspan></text>
    </g>
  </g>
  <g transform="translate(90,82.5)">
    <g class="primitive">
      <text text-anchor="middle" dy="-0.25em">[33]<tspan x="0" dy="1.2em">1π/1</tspan></text>
    </g>
  </g>
  <g transform="translate(90,32.5)">
    <g class="primitive">
      <text text-anchor="middle" dy="-0.25em">[34]<tspan x="0" dy="1.2em">0π/1</tspan></text>
    </g>
  </g>
  <g transform="translate(115,57.5)">
    <g class="primitive">
      <text text-anchor="middle" dy="-0.25em">[35]<tspan x="0" dy="1.2em">0π/1</tspan></text>
    </g>
  </g>
  <g transform="translate(115,82.5)">
    <g class="primitive">
      <text text-anchor="middle" dy="-0.25em">[37]<tspan x="0" dy="1.2em">1π/2</tspan></text>
    </g>
  </g>
  <g transform="translate(140,82.5)">
    <g class="primitive">
      <text text-anchor="middle" dy="-0.25em">[38]<tspan x="0" dy="1.2em">1π/1</tspan></text>
    </g>
  </g>
</g>
</svg>
